<?xml version="1.0" encoding="utf-8"?>
<!-- Generator: Adobe Illustrator 19.2.1, SVG Export Plug-In . SVG Version: 6.00 Build 0)  -->
<svg version="1.1" id="Layer_2" xmlns="http://www.w3.org/2000/svg" xmlns:xlink="http://www.w3.org/1999/xlink" x="0px" y="0px"
	 viewBox="0 0 80.3 80.3" style="enable-background:new 0 0 80.3 80.3;" xml:space="preserve">
<style type="text/css">
	.st0{fill:#EB6A5C;}
	.st1{fill:#552F2F;}
	.st2{fill:#55AB99;}
	.st3{fill:#2F4555;}
	.st4{fill:#FFFFFF;}
	.st5{fill:#ED6B5A;}
	.st6{fill:#0C2C48;}
	.st7{fill:#F1CC4B;}
	.st8{clip-path:url(#SVGID_2_);}
	.st9{clip-path:url(#SVGID_2_);fill:#F6A09C;}
	.st10{fill:#50646F;}
	.st11{fill:#FCA886;}
	.st12{fill:#EDAB7E;}
	.st13{fill:#332319;}
	.st14{fill:#E07E45;}
	.st15{fill:#FF8F8F;}
	.st16{fill:#A6D1D9;}
	.st17{fill:#628185;}
	.st18{fill:#BABABA;}
	.st19{fill:#698391;}
	.st20{opacity:0.41;fill:#FFFFFF;}
	.st21{fill:#F6A09C;}
	.st22{fill:#FFF3C9;}
	.st23{fill:#2384AB;}
	.st24{fill:#BABFC5;}
	.st25{clip-path:url(#SVGID_4_);}
	.st26{fill:#6EB9E0;}
	.st27{fill:#F8A06D;}
	.st28{fill:#A3B9C4;}
	.st29{fill:#3B4A52;}
	.st30{clip-path:url(#SVGID_6_);}
	.st31{clip-path:url(#SVGID_8_);fill:#F6A09C;}
	.st32{opacity:0.21;fill:#FFFFFF;}
	.st33{clip-path:url(#SVGID_10_);fill:#F6A09C;}
	.st34{clip-path:url(#SVGID_12_);}
	.st35{fill:#FFD3B5;}
	.st36{fill:#BFD9E6;}
	.st37{fill:#798287;}
	.st38{fill:#A4A8AD;}
	.st39{fill:#FFD6BA;}
	.st40{fill:none;stroke:#0C2C48;stroke-width:1.4;stroke-miterlimit:10;}
</style>
<g>
	<circle class="st2" cx="40.2" cy="40.2" r="40.2"/>
	<g>
		<g>
			<g>
				<path class="st3" d="M70.3,52.6c0,0.6-0.5,1-1,1H14.8c-0.6,0-1-0.5-1-1V17.4c0-0.6,0.5-1,1-1h54.5c0.6,0,1,0.5,1,1V52.6z"/>
				<rect x="19.9" y="18.4" class="st4" width="44.3" height="33.1"/>
				<rect x="16.4" y="31.6" class="st5" width="1.6" height="6.7"/>
			</g>
		</g>
		<g>
			<g>
				<circle class="st5" cx="42" cy="35" r="14.1"/>
				<rect x="41.3" y="20.7" class="st4" width="1.5" height="28.6"/>
			</g>
			<g>
				<path class="st6" d="M40.5,40.3h-1.6l-1.2-3.2h-4.5l-1.2,3.2h-1.5l4.1-10.6h1.5L40.5,40.3z M37.3,35.9L35.4,31l-1.8,4.9H37.3z"
					/>
			</g>
			<g>
				<path class="st7" d="M52.1,37.2c0,1-0.3,1.8-1,2.3c-0.7,0.5-1.7,0.8-3,0.8h-4V29.7h3.8c0.6,0,1.1,0.1,1.5,0.2
					c0.5,0.1,0.8,0.3,1.1,0.5c0.3,0.2,0.5,0.5,0.7,0.9c0.2,0.3,0.2,0.7,0.2,1.1c0,1-0.5,1.8-1.5,2.3c0.3,0.1,0.6,0.2,0.9,0.4
					c0.3,0.2,0.5,0.4,0.6,0.6c0.2,0.2,0.3,0.5,0.4,0.7C52,36.6,52.1,36.9,52.1,37.2z M45.5,34.1h2.4c0.8,0,1.4-0.1,1.7-0.4
					c0.4-0.2,0.5-0.7,0.5-1.2c0-0.3,0-0.5-0.1-0.7c-0.1-0.2-0.2-0.4-0.4-0.5c-0.2-0.1-0.4-0.2-0.7-0.3c-0.3-0.1-0.7-0.1-1.2-0.1
					h-2.2V34.1z M45.5,39h2.6c1.7,0,2.5-0.6,2.5-1.8c0-0.3,0-0.6-0.1-0.8c-0.1-0.2-0.2-0.4-0.5-0.6c-0.2-0.2-0.5-0.3-0.8-0.3
					c-0.3-0.1-0.8-0.1-1.3-0.1h-2.4V39z"/>
			</g>
		</g>
	</g>
	<g>
		<defs>
			<circle id="SVGID_1_" cx="40.2" cy="40.2" r="40.2"/>
		</defs>
		<clipPath id="SVGID_2_">
			<use xlink:href="#SVGID_1_"  style="overflow:visible;"/>
		</clipPath>
		<g class="st8">
			<path class="st2" d="M14.1,76.1l-19.2-9.9L5.5,45.7l0.4,0.2C7,45,8.7,44.9,10,45.6c0.3,0.2,0.6,0.4,0.8,0.6
				c0.7-0.8,1.8-1.2,2.9-1.2c0.6,0,1.3,0.2,1.8,0.4c0.4,0.2,0.8,0.5,1.1,0.8c1.1-0.8,2.8-0.9,4.1-0.3c0.3,0.1,0.5,0.3,0.7,0.5
				l3.7-7.1c0.7-1.3,2-2.1,3.5-2.1c0.6,0,1.3,0.2,1.8,0.4c0.9,0.5,1.6,1.3,2,2.3c0.3,1,0.2,2.1-0.3,3L23.8,59l1.6-0.7
				c0.5-0.2,1.1-0.3,1.6-0.3c1.6,0,3,0.9,3.6,2.3c0.4,1,0.5,2,0.1,3c-0.4,1-1.1,1.8-2.1,2.2l-11.8,5.3L14.1,76.1z M-1.1,64.9
				l13.9,7.2l1.8-3.6l12.8-5.7c0.2-0.1,0.4-0.3,0.5-0.6c0.1-0.3,0.1-0.5,0-0.8c-0.2-0.5-0.8-0.7-1.3-0.5l-9.3,4.1l12.2-23.6
				c0.1-0.2,0.1-0.5,0.1-0.8c-0.1-0.3-0.3-0.5-0.5-0.6c-0.5-0.3-1.1,0-1.4,0.4L19,57.5l0.9-8c0-0.4-0.2-0.8-0.5-1
				c-0.5-0.3-1.1,0-1.4,0.4l-4.1,8l0.9-8c0-0.4-0.2-0.8-0.5-1c-0.5-0.3-1.1,0-1.4,0.4l-4.5,8.8l0.9-8c0-0.4-0.2-0.8-0.5-1
				c-0.5-0.2-1-0.1-1.3,0.4l-0.1,0.1L-1.1,64.9z"/>
		</g>
		<path class="st9" d="M13.2,74.4l-16.6-8.5L5.8,48l0,0c0.7-1.1,2.1-1.4,3.2-0.9c0.9,0.5,1.4,1.5,1.3,2.5l0.9-1.7
			c0.6-1.2,2.1-1.7,3.4-1.1c0.9,0.5,1.4,1.5,1.3,2.5l0.5-0.9c0.6-1.2,2.1-1.7,3.4-1.1c0.9,0.5,1.4,1.5,1.3,2.5l5-9.7
			c0.6-1.2,2.1-1.7,3.4-1.1c1.2,0.6,1.7,2.1,1.1,3.4L20.3,62.3l5.4-2.4c1.3-0.6,2.7,0,3.3,1.3c0.6,1.3,0,2.7-1.3,3.3l-12.3,5.5
			L13.2,74.4z"/>
	</g>
</g>
</svg>
